<svg xmlns:xlink="http://www.w3.org/1999/xlink" width="116" height="36" viewBox="0 0 116 36" fill="none" xmlns="http://www.w3.org/2000/svg" class=""><path d="M54.9526 22.7788C55.1122 22.7788 55.2501 22.84 55.3662 22.9624L56.5201 24.2044C55.8815 24.9892 55.0941 25.5904 54.1579 26.008C53.229 26.4256 52.1114 26.6344 50.8051 26.6344C49.6367 26.6344 48.5844 26.4364 47.6483 26.0404C46.7193 25.6444 45.9247 25.0936 45.2643 24.388C44.6039 23.6824 44.0959 22.84 43.7403 21.8608C43.3919 20.8816 43.2178 19.8124 43.2178 18.6532C43.2178 17.4796 43.4137 16.4068 43.8056 15.4348C44.1975 14.4556 44.749 13.6132 45.4602 12.9076C46.1714 12.202 47.0205 11.6548 48.0075 11.266C49.0017 10.87 50.0975 10.672 51.295 10.672C52.4634 10.672 53.483 10.8592 54.3538 11.2336C55.2319 11.6008 55.9831 12.0904 56.6072 12.7024L55.6275 14.0524C55.5694 14.1388 55.4932 14.2144 55.3989 14.2792C55.3118 14.344 55.1884 14.3764 55.0288 14.3764C54.8618 14.3764 54.6913 14.3116 54.5171 14.182C54.343 14.0524 54.1216 13.912 53.8531 13.7608C53.5846 13.6096 53.2435 13.4692 52.8298 13.3396C52.4234 13.21 51.9046 13.1452 51.2732 13.1452C50.533 13.1452 49.8508 13.2748 49.2267 13.534C48.6098 13.786 48.0764 14.1496 47.6265 14.6248C47.1838 15.1 46.8355 15.6796 46.5815 16.3636C46.3347 17.0404 46.2113 17.8036 46.2113 18.6532C46.2113 19.5316 46.3347 20.3128 46.5815 20.9968C46.8355 21.6808 47.1765 22.2568 47.6047 22.7248C48.0329 23.1928 48.5372 23.5528 49.1178 23.8048C49.6984 24.0496 50.3225 24.172 50.9902 24.172C51.3893 24.172 51.7485 24.1504 52.0678 24.1072C52.3944 24.064 52.692 23.9956 52.9605 23.902C53.2362 23.8084 53.4939 23.6896 53.7334 23.5456C53.9801 23.3944 54.2232 23.2108 54.4627 22.9948C54.5353 22.93 54.6115 22.8796 54.6913 22.8436C54.7711 22.8004 54.8582 22.7788 54.9526 22.7788Z" fill="black"></path><path d="M61.4491 15.3808V26.4616H58.7603V15.3808H61.4491ZM61.8519 12.1516C61.8519 12.382 61.8047 12.598 61.7104 12.7996C61.616 13.0012 61.489 13.1776 61.3294 13.3288C61.177 13.48 60.9955 13.6024 60.7851 13.696C60.5746 13.7824 60.3496 13.8256 60.1102 13.8256C59.8779 13.8256 59.6566 13.7824 59.4461 13.696C59.2429 13.6024 59.0651 13.48 58.9127 13.3288C58.7603 13.1776 58.637 13.0012 58.5426 12.7996C58.4555 12.598 58.412 12.382 58.412 12.1516C58.412 11.914 58.4555 11.6908 58.5426 11.482C58.637 11.2732 58.7603 11.0932 58.9127 10.942C59.0651 10.7908 59.2429 10.672 59.4461 10.5856C59.6566 10.492 59.8779 10.4452 60.1102 10.4452C60.3496 10.4452 60.5746 10.492 60.7851 10.5856C60.9955 10.672 61.177 10.7908 61.3294 10.942C61.489 11.0932 61.616 11.2732 61.7104 11.482C61.8047 11.6908 61.8519 11.914 61.8519 12.1516Z" fill="black"></path><path d="M68.1652 26.6344C67.2 26.6344 66.4562 26.3644 65.9337 25.8244C65.4111 25.2772 65.1499 24.5248 65.1499 23.5672V17.3788H64.0178C63.8726 17.3788 63.7456 17.332 63.6368 17.2384C63.5352 17.1448 63.4844 17.0044 63.4844 16.8172V15.7588L65.2805 15.4672L65.8466 12.4432C65.8756 12.2992 65.9409 12.1876 66.0425 12.1084C66.1514 12.0292 66.2856 11.9896 66.4453 11.9896H67.8387V15.478H70.7778V17.3788H67.8387V23.3836C67.8387 23.7292 67.9257 23.9992 68.0999 24.1936C68.2741 24.388 68.5063 24.4852 68.7966 24.4852C68.9635 24.4852 69.1014 24.4672 69.2103 24.4312C69.3264 24.388 69.4243 24.3448 69.5042 24.3016C69.5913 24.2584 69.6675 24.2188 69.7328 24.1828C69.7981 24.1396 69.8634 24.118 69.9287 24.118C70.0085 24.118 70.0739 24.1396 70.1247 24.1828C70.1755 24.2188 70.2299 24.2764 70.2879 24.3556L71.0935 25.6516C70.7016 25.9756 70.2517 26.2204 69.7437 26.386C69.2357 26.5516 68.7095 26.6344 68.1652 26.6344Z" fill="black"></path><path d="M72.9162 26.4616V15.3808H74.4946C74.7704 15.3808 74.9627 15.4312 75.0715 15.532C75.1804 15.6328 75.253 15.8056 75.2892 16.0504L75.4525 17.3896C75.8517 16.7056 76.3197 16.1656 76.8568 15.7696C77.3938 15.3736 77.9961 15.1756 78.6638 15.1756C79.2153 15.1756 79.6725 15.3016 80.0354 15.5536L79.6871 17.5516C79.6653 17.6812 79.6181 17.7748 79.5455 17.8324C79.473 17.8828 79.375 17.908 79.2516 17.908C79.1428 17.908 78.994 17.8828 78.8053 17.8324C78.6166 17.782 78.3663 17.7568 78.0542 17.7568C77.4954 17.7568 77.0164 17.9116 76.6173 18.2212C76.2181 18.5236 75.8807 18.97 75.6049 19.5604V26.4616H72.9162Z" fill="black"></path><path d="M86.5712 15.208C87.4058 15.208 88.1605 15.3412 88.8355 15.6076C89.5176 15.874 90.0982 16.252 90.5772 16.7416C91.0561 17.2312 91.4263 17.8288 91.6875 18.5344C91.9488 19.24 92.0794 20.0284 92.0794 20.8996C92.0794 21.778 91.9488 22.57 91.6875 23.2756C91.4263 23.9812 91.0561 24.5824 90.5772 25.0792C90.0982 25.576 89.5176 25.9576 88.8355 26.224C88.1605 26.4904 87.4058 26.6236 86.5712 26.6236C85.7367 26.6236 84.9783 26.4904 84.2961 26.224C83.614 25.9576 83.0298 25.576 82.5435 25.0792C82.0646 24.5824 81.6908 23.9812 81.4223 23.2756C81.161 22.57 81.0304 21.778 81.0304 20.8996C81.0304 20.0284 81.161 19.24 81.4223 18.5344C81.6908 17.8288 82.0646 17.2312 82.5435 16.7416C83.0298 16.252 83.614 15.874 84.2961 15.6076C84.9783 15.3412 85.7367 15.208 86.5712 15.208ZM86.5712 24.5716C87.5002 24.5716 88.1859 24.262 88.6286 23.6428C89.0786 23.0236 89.3035 22.1164 89.3035 20.9212C89.3035 19.726 89.0786 18.8152 88.6286 18.1888C88.1859 17.5624 87.5002 17.2492 86.5712 17.2492C85.6278 17.2492 84.9311 17.566 84.4812 18.1996C84.0312 18.826 83.8063 19.7332 83.8063 20.9212C83.8063 22.1092 84.0312 23.0164 84.4812 23.6428C84.9311 24.262 85.6278 24.5716 86.5712 24.5716Z" fill="black"></path><path d="M94.1773 26.4616V15.3808H95.821C96.1694 15.3808 96.398 15.5428 96.5068 15.8668L96.6919 16.7416C96.9168 16.5112 97.1527 16.3024 97.3994 16.1152C97.6534 15.928 97.9183 15.766 98.1941 15.6292C98.4771 15.4924 98.7783 15.388 99.0976 15.316C99.4169 15.244 99.7653 15.208 100.143 15.208C100.752 15.208 101.293 15.3124 101.765 15.5212C102.236 15.7228 102.628 16.0108 102.94 16.3852C103.26 16.7524 103.499 17.1952 103.659 17.7136C103.826 18.2248 103.909 18.79 103.909 19.4092V26.4616H101.22V19.4092C101.22 18.7324 101.061 18.2104 100.741 17.8432C100.429 17.4688 99.9576 17.2816 99.3262 17.2816C98.8618 17.2816 98.4263 17.386 98.0199 17.5948C97.6135 17.8036 97.2289 18.088 96.866 18.448V26.4616H94.1773Z" fill="black"></path><path d="M111.167 15.208C111.871 15.208 112.517 15.3196 113.104 15.5428C113.7 15.766 114.211 16.0936 114.639 16.5256C115.067 16.9504 115.401 17.476 115.641 18.1024C115.88 18.7216 116 19.4308 116 20.23C116 20.4316 115.989 20.6008 115.967 20.7376C115.953 20.8672 115.92 20.9716 115.869 21.0508C115.826 21.1228 115.764 21.1768 115.684 21.2128C115.605 21.2416 115.503 21.256 115.38 21.256H108.478C108.558 22.3936 108.866 23.2288 109.403 23.7616C109.94 24.2944 110.652 24.5608 111.537 24.5608C111.972 24.5608 112.346 24.5104 112.658 24.4096C112.977 24.3088 113.253 24.1972 113.485 24.0748C113.725 23.9524 113.932 23.8408 114.106 23.74C114.287 23.6392 114.462 23.5888 114.628 23.5888C114.737 23.5888 114.832 23.6104 114.911 23.6536C114.991 23.6968 115.06 23.758 115.118 23.8372L115.902 24.8092C115.605 25.1548 115.271 25.4464 114.901 25.684C114.53 25.9144 114.142 26.1016 113.736 26.2456C113.337 26.3824 112.927 26.4796 112.506 26.5372C112.092 26.5948 111.689 26.6236 111.297 26.6236C110.521 26.6236 109.799 26.4976 109.131 26.2456C108.463 25.9864 107.883 25.6084 107.389 25.1116C106.896 24.6076 106.508 23.9884 106.225 23.254C105.942 22.5124 105.8 21.6556 105.8 20.6836C105.8 19.9276 105.924 19.2184 106.17 18.556C106.417 17.8864 106.769 17.3068 107.226 16.8172C107.691 16.3204 108.253 15.928 108.913 15.64C109.581 15.352 110.332 15.208 111.167 15.208ZM111.221 17.1196C110.437 17.1196 109.824 17.3392 109.382 17.7784C108.939 18.2176 108.656 18.8404 108.532 19.6468H113.583C113.583 19.3012 113.536 18.9772 113.442 18.6748C113.348 18.3652 113.202 18.0952 113.006 17.8648C112.811 17.6344 112.564 17.4544 112.266 17.3248C111.969 17.188 111.62 17.1196 111.221 17.1196Z" fill="black"></path><path fill-rule="evenodd" clip-rule="evenodd" d="M18.1428 36C28.1628 36 36.2856 27.9411 36.2856 18C36.2856 8.05888 28.1628 0 18.1428 0C8.12282 0 0 8.05888 0 18C0 27.9411 8.12282 36 18.1428 36ZM12.6114 25.0491C13.8695 25.6298 15.3491 25.9202 17.0504 25.9202C18.0369 25.9202 19.0734 25.8256 20.1599 25.6366C21.2607 25.434 22.3187 25.1234 23.3337 24.7047C24.2773 24.313 24.7491 23.7053 24.7491 22.8815C24.7491 22.6249 24.6919 22.4156 24.5775 22.2535C24.4631 22.0914 24.2916 22.0104 24.0628 22.0104C23.9199 22.0104 23.7412 22.0509 23.5267 22.1319C22.3687 22.5911 21.3108 22.9355 20.3529 23.1651C19.4093 23.3812 18.4729 23.4892 17.5437 23.4892C15.6708 23.4892 14.2555 23.0503 13.2976 22.1725C12.3397 21.2811 11.8608 20.0251 11.8608 18.4045C11.8608 16.8514 12.1253 15.5144 12.6543 14.3934C13.1832 13.259 13.8766 12.4014 14.7344 11.8207C15.5922 11.2399 16.4929 10.9496 17.4364 10.9496C18.8232 10.9496 19.5166 11.5641 19.5166 12.793C19.5166 13.0361 19.4737 13.3603 19.3879 13.7654C19.3307 14.0896 19.3021 14.3124 19.3021 14.4339C19.3021 14.7716 19.4165 15.0282 19.6452 15.2037C19.874 15.3793 20.1885 15.4671 20.5888 15.4671C21.1607 15.4671 21.5967 15.2172 21.8969 14.7175C22.2114 14.2179 22.3687 13.5561 22.3687 12.7323C22.3687 11.5033 21.9684 10.5174 21.1678 9.77461C20.3672 9.01832 19.1949 8.64017 17.6509 8.64017C15.9925 8.64017 14.4842 9.06559 13.126 9.91642C11.7679 10.7537 10.6885 11.9422 9.8879 13.4818C9.10159 15.0214 8.70844 16.7839 8.70844 18.7691C8.70844 20.2007 9.04441 21.4567 9.71634 22.5371C10.3883 23.6175 11.3533 24.4549 12.6114 25.0491ZM26.9629 25.434C27.2917 25.7581 27.7706 25.9202 28.3997 25.9202C29.043 25.9202 29.5506 25.7379 29.9223 25.3732C30.294 24.9951 30.4798 24.4954 30.4798 23.8741C30.4798 23.3069 30.3154 22.8815 29.9866 22.5979C29.6721 22.3008 29.2003 22.1522 28.5713 22.1522C27.9136 22.1522 27.3989 22.3345 27.0272 22.6992C26.6698 23.0638 26.4911 23.55 26.4911 24.1577C26.4911 24.6844 26.6484 25.1099 26.9629 25.434Z" fill="#F64F59"></path></svg>